<?xml version="1.0" encoding="UTF-8"?>
<svg version="1.1" xmlns="http://www.w3.org/2000/svg" width="512" height="512">
<path d="M0 0 C17.33524737 15.08497823 28.04037119 31.71882554 33.00244141 54.39941406 C33.15342285 55.08583984 33.3044043 55.77226563 33.45996094 56.47949219 C36.74074231 71.86766631 36.15042401 86.79915051 35.00244141 102.39941406 C42.35547948 99.8194007 44.4112949 96.4341395 48.03369141 89.70800781 C54.40120605 79.00704571 62.77138846 71.88247701 74.74462891 68.27050781 C79.21769735 67.19709693 83.37532725 67.27738229 87.93994141 67.58691406 C88.68695313 67.61849609 89.43396484 67.65007812 90.20361328 67.68261719 C101.48152443 68.35403726 111.09513338 73.64242455 121.11962891 78.45996094 C133.55410162 84.30542871 143.99834934 86.19696211 157.25244141 82.14941406 C157.92605713 81.94501709 158.59967285 81.74062012 159.29370117 81.5300293 C163.68293597 80.09336496 167.47849298 78.47562614 171.00244141 75.39941406 C172.1878948 71.97770545 172.1878948 71.97770545 172.56494141 68.14941406 C174.11285713 58.43083979 177.20847174 53.22924401 185.13525391 47.43066406 C187.00244141 46.39941406 187.00244141 46.39941406 190.00244141 46.39941406 C189.96763672 47.61564453 189.96763672 47.61564453 189.93212891 48.85644531 C189.7880576 57.69624924 189.70623345 66.53699051 194.06494141 74.46191406 C197.69824424 81.23493897 197.54505676 87.40428153 195.50244141 94.71191406 C191.46829475 106.50936699 184.79559452 118.26434412 176.92822266 127.95410156 C169.36958961 137.55187902 168.86045386 149.79027982 168.34619141 161.52832031 C168.00244141 164.39941406 168.00244141 164.39941406 166.00244141 166.39941406 C163.23332719 166.39941406 161.58135615 165.94868088 159.55322266 164.02441406 C159.06208984 163.48816406 158.57095703 162.95191406 158.06494141 162.39941406 C156.00515711 160.22461643 155.09202564 159.43126623 152.18994141 158.39941406 C147.11855133 158.39941406 142.35884901 158.59895544 138.19775391 161.77832031 C132.15812182 168.25364725 130.68493236 175.7141274 130.60400391 184.33300781 C130.73548828 185.01492187 130.86697266 185.69683594 131.00244141 186.39941406 C134.35342216 188.63340123 136.62552072 189.00705613 140.56494141 189.71191406 C157.99053167 193.45360522 167.15988802 204.9288913 177.87744141 218.46191406 C184.4131255 226.59792454 192.63218237 233.26713587 203.28369141 234.70800781 C205.57068832 234.77645666 207.72842975 234.64862082 210.00244141 234.39941406 C210.81712891 234.31691406 211.63181641 234.23441406 212.47119141 234.14941406 C221.71752953 232.77958619 228.22186232 228.0764156 233.81103516 220.71972656 C234.20419922 220.28402344 234.59736328 219.84832031 235.00244141 219.39941406 C235.66244141 219.39941406 236.32244141 219.39941406 237.00244141 219.39941406 C239.21798036 227.43074278 234.78666035 235.34352905 231.00244141 242.33691406 C219.61170016 260.90771656 200.19105134 275.08565609 179.00244141 280.39941406 C177.67234113 280.67331927 176.34153621 280.94381287 175.01025391 281.21191406 C174.2903125 281.36692383 173.57037109 281.52193359 172.82861328 281.68164062 C171.39020835 281.98731763 169.94586092 282.26655095 168.49658203 282.515625 C166.18207609 282.94478736 166.18207609 282.94478736 163.00244141 284.39941406 C160.43745634 288.63139137 159.56320799 291.53431277 160.68994141 296.33691406 C161.25684375 300.42359469 160.88162922 302.43985849 158.50244141 305.83691406 C155.36903986 309.45968135 152.52811968 310.94778141 148.00244141 312.39941406 C147.01244141 312.72941406 146.02244141 313.05941406 145.00244141 313.39941406 C131.73788111 314.46406956 122.215007 311.15463876 111.00244141 304.39941406 C111.33244141 305.47191406 111.66244141 306.54441406 112.00244141 307.64941406 C113.41774448 313.19102329 113.17281077 318.72043536 113.00244141 324.39941406 C113.79908203 324.56957031 114.59572266 324.73972656 115.41650391 324.91503906 C126.73807235 327.50440021 135.05384206 332.87654334 141.54931641 342.75097656 C146.53360215 352.19650572 148.92407155 362.21628945 150.37744141 372.71191406 C152.63382611 388.61140742 158.30525615 403.88721289 171.00244141 414.39941406 C176.75434388 418.52786607 182.64866019 421.94699879 189.22509766 424.57519531 C191.00244141 425.39941406 191.00244141 425.39941406 193.00244141 427.39941406 C192.92212394 431.6562398 192.41086569 433.86262786 189.81494141 437.27441406 C183.65634249 441.92757769 174.39880551 440.97277562 167.00244141 440.39941406 C156.45906514 437.90979748 147.53923888 430.85870297 139.56494141 423.83691406 C128.44897051 414.05665391 117.57077492 410.5744684 102.96191406 411.22460938 C96.90306751 411.76511948 93.12713338 415.28096601 88.56494141 418.96191406 C82.77884358 423.59476903 76.64298724 426.0843055 69.09619141 425.66503906 C60.2506079 424.54283817 55.70996637 421.85718835 49.81494141 415.06738281 C46.65820053 410.42071468 45.49387674 405.99362541 46.00244141 400.39941406 C46.66244141 399.73941406 47.32244141 399.07941406 48.00244141 398.39941406 C51.42311216 398.58945133 53.02854567 399.41855719 55.81494141 401.46191406 C60.02488049 404.02089664 62.15002957 403.96552878 67.00244141 403.39941406 C69.70742846 399.34193349 69.88222665 396.16293595 69.00244141 391.39941406 C65.30103469 384.17955989 58.26691686 381.82090588 51.00244141 379.39941406 C49.51646552 379.29797452 48.02688138 379.24480602 46.53759766 379.22363281 C36.3390641 378.97552748 27.44932954 378.6045506 18.00244141 374.39941406 C18.25638672 375.0890625 18.51033203 375.77871094 18.77197266 376.48925781 C19.85851426 379.45588263 20.93326489 382.42648799 22.00244141 385.39941406 C22.29892578 386.22054688 22.59541016 387.04167969 22.90087891 387.88769531 C26.06196288 396.94842612 26.62864411 404.28587814 23.00244141 413.39941406 C19.6270506 418.09247079 15.83221195 421.21460957 11.18994141 424.58691406 C4.82910696 429.39764316 0.13162179 434.50660901 -3.99755859 441.39941406 C-4.37525391 442.01300781 -4.75294922 442.62660156 -5.14208984 443.25878906 C-8.22174949 449.16498565 -7.84156104 456.10131218 -6.23583984 462.37597656 C-3.40659922 470.67359137 0.64713016 475.30991119 7.39306641 480.75097656 C9.00244141 482.39941406 9.00244141 482.39941406 9.00244141 485.39941406 C1.00393372 487.61085066 -7.35211705 482.59795347 -14.39599609 478.93066406 C-32.9808046 467.99185786 -44.06004896 452.76929729 -49.99755859 432.39941406 C-50.35462891 431.31015625 -50.71169922 430.22089844 -51.07958984 429.09863281 C-52.25120507 424.37727274 -52.61078333 419.80820084 -52.87255859 414.96191406 C-52.94474609 414.05892578 -53.01693359 413.1559375 -53.09130859 412.22558594 C-53.44744439 405.75422355 -52.33933772 401.95821009 -48.99755859 396.39941406 C-49.51946777 396.79862061 -50.04137695 397.19782715 -50.57910156 397.60913086 C-67.22990942 410.30641225 -67.22990942 410.30641225 -75.99755859 409.39941406 C-78.6277202 407.22667186 -80.47092753 405.45267618 -81.99755859 402.39941406 C-83.21443359 402.50253906 -84.43130859 402.60566406 -85.68505859 402.71191406 C-86.36955078 402.76992188 -87.05404297 402.82792969 -87.75927734 402.88769531 C-90.57112334 403.53054318 -92.53731184 404.90688918 -94.99755859 406.39941406 C-96.85775388 407.02836261 -98.73446663 407.60995922 -100.62255859 408.14941406 C-116.69242677 413.39471333 -130.7611046 426.30000097 -138.62255859 441.14941406 C-141.29950985 446.71123511 -143.18568503 452.50829442 -144.99755859 458.39941406 C-152.99341367 455.40096841 -158.15741355 448.67474301 -161.81005859 441.14941406 C-169.02850721 423.6154122 -168.6019325 406.38343443 -161.60302734 388.95800781 C-155.49812042 375.42620682 -147.63452365 362.82749612 -136.99755859 352.39941406 C-135.10534027 350.45419243 -133.23136551 348.50067306 -131.37255859 346.52441406 C-130.89560547 346.03328125 -130.41865234 345.54214844 -129.92724609 345.03613281 C-126.54453987 341.41851643 -124.73119146 338.04182691 -122.99755859 333.39941406 C-123.80193359 334.14191406 -124.60630859 334.88441406 -125.43505859 335.64941406 C-135.01901101 343.53945861 -148.4179933 346.21895735 -160.56005859 345.38745117 C-173.99965129 343.93817691 -186.9108317 337.84324676 -198.73583984 331.58691406 C-202.66605915 330.15603182 -204.97099384 330.39157306 -208.99755859 331.39941406 C-210.02880859 332.10066406 -211.06005859 332.80191406 -212.12255859 333.52441406 C-214.99755859 335.39941406 -214.99755859 335.39941406 -217.74755859 335.39941406 C-219.99755859 334.39941406 -219.99755859 334.39941406 -221.23193359 332.57519531 C-221.99755859 330.39941406 -221.99755859 330.39941406 -221.52880859 328.50488281 C-220.41037524 326.42476624 -219.2535569 324.39998621 -217.99755859 322.39941406 C-217.62888672 321.79613281 -217.26021484 321.19285156 -216.88037109 320.57128906 C-211.44955846 313.08283934 -200.1688335 308.06306377 -191.21240234 306.46191406 C-187.55682944 306.35875857 -184.12056432 307.17692395 -180.56005859 307.93847656 C-173.91310077 309.13411837 -165.99656908 306.80589825 -160.23193359 303.33691406 C-154.90428454 299.24700166 -152.40632555 295.21901094 -151.46240234 288.70800781 C-150.77232984 281.32125457 -150.82418752 274.55875405 -152.99755859 267.39941406 C-153.43841797 267.76035156 -153.87927734 268.12128906 -154.33349609 268.49316406 C-159.78512364 272.2529072 -164.60525295 272.91957879 -171.06005859 272.96191406 C-171.81528809 272.97609375 -172.57051758 272.99027344 -173.34863281 273.00488281 C-182.77236815 272.84102738 -189.60033054 268.00468205 -195.99755859 261.39941406 C-197.12349437 259.93674982 -198.22745647 258.45693604 -199.31005859 256.96191406 C-203.70298369 251.04719043 -209.94531517 245.75016187 -216.99755859 243.39941406 C-228.55270315 242.62709078 -237.11832768 243.60046463 -246.29052734 250.83691406 C-248.20782926 252.49155813 -248.20782926 252.49155813 -250.12255859 255.27441406 C-251.99755859 257.39941406 -251.99755859 257.39941406 -255.12255859 257.89941406 C-256.07130859 257.73441406 -257.02005859 257.56941406 -257.99755859 257.39941406 C-260.25512223 254.0130686 -260.15420517 252.56254231 -259.53662109 248.64160156 C-255.37484675 231.3310329 -239.97728537 215.62407013 -225.46630859 206.23144531 C-219.5384851 203.10064664 -213.31492814 200.91050859 -206.90625 198.97607422 C-205.20717424 198.46274383 -203.52284914 197.90115208 -201.84130859 197.33300781 C-194.90944771 195.64935461 -187.7817922 195.22875616 -180.69287109 194.54394531 C-179.52240234 194.4240625 -178.35193359 194.30417969 -177.14599609 194.18066406 C-175.55537354 194.02694336 -175.55537354 194.02694336 -173.93261719 193.87011719 C-171.00251336 193.40020867 -168.65516488 192.71243004 -165.99755859 191.39941406 C-164.73729062 188.87887811 -165.07881414 187.54520426 -165.43505859 184.77441406 C-165.5878125 183.54851562 -165.5878125 183.54851562 -165.74365234 182.29785156 C-165.82744141 181.67136719 -165.91123047 181.04488281 -165.99755859 180.39941406 C-167.356875 179.90634766 -167.356875 179.90634766 -168.74365234 179.40332031 C-180.87143311 174.66771068 -188.29395582 168.31479108 -193.99755859 156.39941406 C-195.25764842 153.13459065 -196.25548445 149.83439635 -197.18505859 146.46191406 C-197.43916504 145.54877441 -197.69327148 144.63563477 -197.95507812 143.69482422 C-200.27607034 134.97787302 -201.53723283 126.39868306 -201.99755859 117.39941406 C-202.03606934 116.68205078 -202.07458008 115.9646875 -202.11425781 115.22558594 C-202.98620399 95.80851582 -202.86093555 70.12616797 -193.99755859 52.39941406 C-192.92505859 52.56441406 -191.85255859 52.72941406 -190.74755859 52.89941406 C-186.96727107 53.48752321 -186.96727107 53.48752321 -182.99755859 53.39941406 C-183.49121703 56.19681186 -184.07512482 58.58312354 -185.18505859 61.21191406 C-186.57233571 66.65430889 -184.98924633 70.6285431 -182.30224609 75.42675781 C-179.68256095 78.80570763 -177.58020804 80.11243788 -173.74755859 81.96191406 C-173.14129639 82.25509521 -172.53503418 82.54827637 -171.91040039 82.8503418 C-167.32590184 84.98580368 -162.65602102 86.53870525 -157.81005859 87.96191406 C-142.51858409 92.47773742 -131.26154902 100.82537759 -122.47802734 114.21972656 C-120.6141426 116.96391571 -118.39963193 119.12052397 -115.99755859 121.39941406 C-114.5841078 123.16919699 -113.18340158 124.9438973 -111.81787109 126.75097656 C-109.17090193 129.1480173 -106.31779751 130.10428541 -102.99755859 131.39941406 C-103.44486328 130.43003906 -103.89216797 129.46066406 -104.35302734 128.46191406 C-107.57382177 121.36759421 -110.56264261 114.26360759 -112.93505859 106.83691406 C-113.14606201 106.19560547 -113.35706543 105.55429688 -113.57446289 104.89355469 C-116.35414803 95.84572084 -115.05407282 86.23293827 -110.67333984 77.87207031 C-109.2080275 75.62218128 -107.66108371 73.50627473 -105.99755859 71.39941406 C-105.52189453 70.77292969 -105.04623047 70.14644531 -104.55615234 69.50097656 C-98.8443715 62.37292308 -90.9818565 55.95935825 -81.74755859 54.64941406 C-74.497371 54.09077314 -68.42799356 54.42177397 -61.93505859 57.89941406 C-57.29569368 60.37857469 -53.32341522 61.98696408 -47.99755859 61.39941406 C-44.58831057 60.2801515 -41.91384726 58.46676802 -38.99755859 56.39941406 C-38.45373535 56.02204102 -37.90991211 55.64466797 -37.34960938 55.25585938 C-28.29651138 48.89368769 -20.62001711 42.26678961 -16.99755859 31.39941406 C-16.74146031 27.79968113 -16.76621605 24.19480061 -16.74755859 20.58691406 C-16.72693359 19.60142578 -16.70630859 18.6159375 -16.68505859 17.60058594 C-16.65578566 12.15216054 -16.72703877 7.99371572 -19.99755859 3.39941406 C-22.40010098 1.29795947 -22.40010098 1.29795947 -25.12255859 -0.35058594 C-29.91422526 -3.43391927 -29.91422526 -3.43391927 -30.99755859 -5.60058594 C-31.98755859 -5.93058594 -32.97755859 -6.26058594 -33.99755859 -6.60058594 C-33.99755859 -7.92058594 -33.99755859 -9.24058594 -33.99755859 -10.60058594 C-20.98208342 -13.04098753 -10.102256 -8.09464561 0 0 Z " fill="#C5723D" transform="translate(265.99755859375,18.6005859375)"/>
<path d="M0 0 C0 0.66 0 1.32 0 2 C1.98 2.66 3.96 3.32 6 4 C6 4.66 6 5.32 6 6 C6.886875 6.226875 7.77375 6.45375 8.6875 6.6875 C12.51432622 8.20378963 14.16648147 10.04681553 17 13 C17.77859375 13.7321875 18.5571875 14.464375 19.359375 15.21875 C26.01755619 21.57230852 31.04488265 28.31431702 36 36 C36.55558594 36.82113281 37.11117187 37.64226562 37.68359375 38.48828125 C51.1888381 59.36002251 54.75655808 86.74154869 51 111 C46.68802659 130.94880005 37.24940856 149.3922891 23 164 C22.175 164.86625 21.35 165.7325 20.5 166.625 C19.675 167.40875 18.85 168.1925 18 169 C17.3915625 169.59167969 16.783125 170.18335938 16.15625 170.79296875 C-3.22318747 188.94363754 -29.66262306 197.7084906 -55.96484375 197.24609375 C-70.59911012 196.51782251 -84.22008868 192.7681888 -98 188 C-98 187.34 -98 186.68 -98 186 C-99.98 185.67 -101.96 185.34 -104 185 C-104 184.34 -104 183.68 -104 183 C-104.72832031 182.73316406 -105.45664063 182.46632813 -106.20703125 182.19140625 C-123.21819538 174.93489568 -135.98359167 158.57937221 -145 143 C-145 142.34 -145 141.68 -145 141 C-145.66 141 -146.32 141 -147 141 C-148 138.33333333 -149 135.66666667 -150 133 C-150.23106445 132.41597412 -150.46212891 131.83194824 -150.70019531 131.23022461 C-152.57719992 126.40898046 -153.97655266 121.60443597 -155.125 116.5625 C-155.29676758 115.81242676 -155.46853516 115.06235352 -155.64550781 114.28955078 C-156.78564918 109.19655038 -157.78987615 104.22683065 -158 99 C-158.0515625 97.93136719 -158.103125 96.86273438 -158.15625 95.76171875 C-158.67068929 75.46280178 -153.07751941 57.45799117 -145 39 C-144.34 39 -143.68 39 -143 39 C-142.73574219 38.27425781 -142.47148437 37.54851562 -142.19921875 36.80078125 C-137.07026934 24.82209484 -126.51499934 14.35888928 -116 7 C-113.66796875 6.24609375 -113.66796875 6.24609375 -112 6 C-112 5.34 -112 4.68 -112 4 C-106.25 1 -106.25 1 -104 1 C-104 0.34 -104 -0.32 -104 -1 C-70.12364304 -15.26792446 -33.30567652 -18.35210747 0 0 Z " fill="#F2BC63" transform="translate(309,164)"/>
<path d="M0 0 C1.98 0.99 3.96 1.98 6 3 C5.67 3.66 5.34 4.32 5 5 C3.125 4.6875 3.125 4.6875 1 4 C0.34 3.01 -0.32 2.02 -1 1 C-0.67 0.67 -0.34 0.34 0 0 Z " fill="#C36C3B" transform="translate(85,196)"/>
<path d="M0 0 C0.33 0.99 0.66 1.98 1 3 C-1.31 4.32 -3.62 5.64 -6 7 C-4.60667426 3.63279613 -3.0210714 2.0140476 0 0 Z " fill="#C7713D" transform="translate(328,67)"/>
<path d="M0 0 C0.66 0.33 1.32 0.66 2 1 C1.01 1 0.02 1 -1 1 C-0.67 0.67 -0.34 0.34 0 0 Z " fill="#C9743D" transform="translate(152,436)"/>
<path d="M0 0 C2 1 2 1 2 1 Z " fill="#C9733D" transform="translate(155,434)"/>
<path d="M0 0 C2 1 2 1 2 1 Z " fill="#C8733D" transform="translate(157,433)"/>
<path d="M0 0 C2 1 2 1 2 1 Z " fill="#C8713D" transform="translate(162,430)"/>
<path d="M0 0 C2 1 2 1 2 1 Z " fill="#CC773E" transform="translate(90,412)"/>
<path d="" fill="#CC773E" transform="translate(0,0)"/>
<path d="" fill="#C9733D" transform="translate(0,0)"/>
<path d="" fill="#C8723D" transform="translate(0,0)"/>
<path d="" fill="#C7713D" transform="translate(0,0)"/>
<path d="" fill="#C7713D" transform="translate(0,0)"/>
<path d="" fill="#CC773E" transform="translate(0,0)"/>
<path d="" fill="#CC773E" transform="translate(0,0)"/>
<path d="" fill="#C6703C" transform="translate(0,0)"/>
<path d="" fill="#C7703D" transform="translate(0,0)"/>
</svg>
